<?xml version="1.0" encoding="UTF-8"?>
<svg width="752pt" height="752pt" version="1.1" viewBox="0 0 752 752" xmlns="http://www.w3.org/2000/svg">
 <g fill="#fff">
  <path d="m367.74 389.04c-4.2656 0-8.7539 1.8477-11.773 4.8711-2.8867 2.8867-5.0742 7.625-4.8828 11.781 0.19141 4.2969 1.6094 8.7656 4.8828 11.762 3.2539 2.9961 7.2656 4.8711 11.773 4.8711 4.2656 0 8.7539-1.8438 11.773-4.8711 2.8867-2.8789 5.0742-7.6133 4.8828-11.762-0.19141-4.3086-1.6172-8.7734-4.8828-11.781-3.2656-2.9805-7.2734-4.8711-11.773-4.8711z"/>
  <path d="m471.54 311.61c-14.547-24.164-30.734-47.266-48.211-69.379-17.93-22.676-38.359-44.199-48.27-71.891-5.5586-15.551-25.52-11.75-27.516 3.7227-0.15234 1.1875-0.27734 2.3828-0.41797 3.5703-22.711 28.398-45.836 55.59-64.539 87.312-21.008 35.684-38.41 75.355-50.152 115.09-4.5938 15.602-5.043 31.418 6.7305 43.961 10.855 11.559 27.75 15.723 36.492 29.379 9.5547 14.891 10.336 34.297 10.906 51.434 0.12891 3.668 0.20312 7.3477 0.30859 11.016-10.461 0.91406-20.938 1.8984-31.398 3.0898-6.1836 0.69141-6.4023 9.3516 0 9.8008 10.57 0.71484 21.148 1.3828 31.734 2.0547 0.28516 15.328 0.48047 30.656 0.90625 45.965 0.22266 7.9766 6.4727 14.32 14.492 14.504 32.184 0.71484 64.352 1.4297 96.543 1.6445 21.266 0.12109 48.738 5.9258 59.434-17.48 11.484-25.156 4.4609-54.594 4.7344-81.059 0.12109-12.297 1.1406-25.723 7.4102-36.602 6.1836-10.762 16.582-14.16 26.457-20.441 18.875-12.027 22.738-27.961 14.055-48.445-11.301-26.66-24.762-52.48-39.699-77.246zm-42.555 255.45c-10.855 2.3984-25.086-0.76172-36.277-1.3516-25.219-1.3125-50.445-2.1445-75.684-2.9766 0.042968-9.8789 0.19141-19.953 0.18359-30.066 37.445 2.3164 74.914 4.5859 112.3 7.5312 3.832 0.29688 6.8906-0.74609 9.2266-2.5508 0.23047 10.637 0.46094 27.168-9.7539 29.414zm43.227-144.48c-33.582 20.828-34.785 55.398-34.008 90.016-2.25-1.6758-5.1328-2.707-8.6914-2.6953-37.699 0.19141-75.164 1.1797-112.61 3.6055-0.58984-17.188-2.2266-34.191-6.375-50.262-3.8203-14.77-10.938-29.008-22.504-39.191-11.047-9.7266-31.98-14.383-29.52-31.5 2.5508-17.684 12.148-36.48 18.449-53.16 7.3164-19.355 15.707-38.137 24.559-56.82 13.395-28.301 26.746-57.824 43.434-84.75-5.1641 57.117-2.5078 113.55 5.3867 170.73 2.3281 16.863 28.066 9.7422 25.668-7.0742-6.6758-46.734-7.7734-93.727-4.7578-140.65 19.098 27.551 43.23 52.34 61.84 79.742 14.098 20.785 26.988 42.367 38.574 64.621 6.0898 11.664 14.867 25.426 18.215 38.172 3.043 11.582-9.5547 14.207-17.656 19.219z"/>
 </g>
</svg>
